<?xml version="1.0" encoding="utf-8"?>
<!-- Generator: Adobe Illustrator 24.2.3, SVG Export Plug-In . SVG Version: 6.00 Build 0)  -->
<svg version="1.1" id="Layer_1" xmlns="http://www.w3.org/2000/svg" xmlns:xlink="http://www.w3.org/1999/xlink" x="0px" y="0px"
	 viewBox="0 0 265.5 120" style="enable-background:new 0 0 265.5 120;" xml:space="preserve">
<style type="text/css">
	.st0{fill:#F3BD19;}
	.st1{fill:#134F6C;}
</style>
<g>
	<g>
		<polygon id="XMLID_7_" class="st0" points="132.8,0 140.1,16.7 157.4,18.1 143.7,29.7 148,47.2 132.8,37.7 117.5,47.2 121.9,29.7 
			108.1,18.1 126.2,16.7 		"/>
		<polygon id="XMLID_6_" class="st0" points="79.8,16.7 84.9,29.1 97.9,29.7 87.7,38.5 90.6,51.5 79.8,44.2 68.8,51.5 71.8,38.5 
			61.5,29.7 74.7,29.1 		"/>
		<polygon id="XMLID_4_" class="st0" points="185.9,16.7 180.8,29.1 167.6,29.7 177.8,38.5 174.9,51.5 185.9,44.2 196.7,51.5 
			193.8,38.5 204,29.7 190.8,29.1 		"/>
	</g>
	<g>
		<path class="st1" d="M15.8,78.7c4.3,0,7.9,1.5,10.8,4.5c0.8,0.8,1.1,1.7,0.9,2.9c0,1.1-0.5,2-1.2,2.8c-0.8,0.8-1.7,1.1-2.9,1.1
			c-1.2,0-2.2-0.3-2.9-1.1c-1.4-1.2-2.9-1.9-4.8-1.9c-0.9,0-1.9,0.2-2.8,0.6c-0.9,0.5-1.7,0.9-2.3,1.5s-1.2,1.4-1.5,2.3
			S8.5,93.1,8.5,94s0,2,0.5,3c0.3,0.9,0.9,1.7,1.5,2.3c0.6,0.6,1.4,1.2,2.3,1.5c0.9,0.3,1.7,0.6,2.8,0.5c1.9,0,3.4-0.6,4.8-1.7
			c0.8-0.9,1.7-1.2,2.9-1.2c1.2,0,2.2,0.5,2.9,1.2c0.3,0.3,0.6,0.8,0.9,1.2c0.2,0.5,0.3,0.9,0.3,1.5c0,0.5,0,1.1-0.2,1.5
			c-0.2,0.5-0.5,0.9-0.8,1.2c-1.5,1.5-3.1,2.6-4.9,3.4c-1.9,0.8-3.7,1.1-6,1.1c-2.2,0-4.2-0.5-6-1.2s-3.6-2-4.9-3.4
			s-2.5-3.1-3.4-4.9C0.5,98.2,0,96.2,0,94.2s0.5-4,1.2-5.9c0.8-1.9,2-3.6,3.4-4.9s3.1-2.5,4.9-3.4C11.8,79,13.6,78.7,15.8,78.7z"/>
		<path class="st1" d="M34.3,78.6c1.1,0,2.2,0.5,2.9,1.2c0.9,0.8,1.2,1.9,1.2,3.1v11.3c0,0.9,0.2,1.9,0.6,2.8
			c0.3,0.9,0.9,1.7,1.5,2.3c0.6,0.6,1.4,1.1,2.3,1.5c0.9,0.3,1.9,0.6,2.8,0.6s1.9-0.2,2.6-0.5c0.9-0.3,1.5-0.8,2.3-1.4
			c0.6-0.6,1.2-1.4,1.5-2.2c0.3-0.9,0.6-1.7,0.6-2.8V83c0-0.9,0.2-1.5,0.6-2.2c0.2-0.2,0.2-0.3,0.3-0.3c0.2-0.2,0.2-0.3,0.3-0.3
			c0.8-0.9,1.7-1.2,2.9-1.2c1.1,0,2.2,0.5,2.9,1.2c0.8,0.8,1.2,1.7,1.2,2.8v11.6c0,2.2-0.5,4.2-1.2,6c-0.8,1.9-1.9,3.6-3.4,4.9
			c-1.4,1.4-3.1,2.5-4.9,3.4c-1.9,0.8-3.9,1.2-6,1.2c-2,0.2-4-0.3-5.9-1.1c-1.9-0.8-3.6-1.9-4.9-3.2c-1.4-1.4-2.6-2.9-3.4-4.8
			c-0.9-1.9-1.2-3.9-1.2-5.9V83.5c0-1.1,0.5-2,1.2-2.9C32.2,79,33.1,78.6,34.3,78.6z"/>
		<path class="st1" d="M84.7,78.6c1.1,0,2.2,0.5,2.9,1.2c0.8,0.9,1.1,1.9,1.1,2.8c0,1.1-0.5,2-1.2,2.9c-0.8,0.8-1.7,1.2-2.8,1.2h-11
			c-0.5,0-0.9,0.2-1.2,0.5c-0.3,0.3-0.5,0.6-0.5,1.1s0.2,0.8,0.5,1.1c0.3,0.3,0.6,0.5,1.2,0.5H81c1.4,0,2.5,0.3,3.7,0.8
			c1.1,0.5,2.2,1.2,2.9,2.2c0.8,0.9,1.5,2,2,3.1c0.5,1.2,0.8,2.5,0.8,3.7c0,1.4-0.3,2.8-0.8,4s-1.2,2.3-2.2,3.1
			c-0.9,0.9-2,1.5-3.2,2s-2.6,0.8-4,0.8H69.4c-1.1,0-2-0.3-2.8-1.1c-0.8-0.8-1.1-1.7-1.1-2.9c0-1.1,0.3-2,1.1-2.9
			c0.8-0.9,1.7-1.4,2.8-1.4h10.8c1.1,0,1.7-0.5,1.7-1.5c0-0.9-0.6-1.5-1.7-1.5h-7.1c-1.2,0-2.5-0.3-3.6-0.8s-2.2-1.2-2.9-2.2
			c-0.8-0.9-1.5-2-2-3.1c-0.5-1.2-0.8-2.5-0.8-3.9c0-1.2,0.3-2.5,0.8-3.7s1.2-2.2,2-3.1c0.9-0.9,1.9-1.5,2.9-2.2
			c1.1-0.5,2.5-0.8,3.7-0.9h11.4L84.7,78.6L84.7,78.6z"/>
		<path class="st1" d="M97.3,68.7c1.2,0,2.2,0.5,2.9,1.2c0.8,0.8,1.2,1.9,1.4,3.1v4.8h12.2c1.2,0,2.2,0.5,2.9,1.2
			c0.8,0.9,1.1,1.9,1.1,2.9s-0.5,2.2-1.2,2.9c-0.9,0.9-1.9,1.2-2.9,1.2h-12.2v7.3c0,0.9,0.2,1.9,0.6,2.8c0.5,0.9,0.9,1.7,1.5,2.3
			c0.6,0.6,1.4,1.2,2.3,1.5s1.9,0.6,2.8,0.6c1.1,0,2-0.2,2.8-0.5s1.5-0.8,2-1.4c0.9-0.8,1.9-1.2,2.9-1.2c1.1,0,2.2,0.5,3.1,1.2
			c0.5,0.3,0.8,0.8,0.9,1.2c0.2,0.5,0.3,0.9,0.3,1.5c0,0.5,0,1.1-0.2,1.5c-0.2,0.5-0.5,0.9-0.8,1.4c-1.5,1.4-3.1,2.6-4.9,3.4
			c-1.9,0.8-3.7,1.1-5.7,1.1c-2.2,0-4.3-0.3-6.3-1.1c-2-0.8-3.7-1.9-5.3-3.2c-1.5-1.4-2.6-3.1-3.6-4.9c-0.9-2-1.4-4.2-1.4-6.5V72.7
			c0-1.1,0.5-2.2,1.2-2.9C95.1,69.1,96,68.7,97.3,68.7z"/>
		<path class="st1" d="M138.6,78.7c2.2,0,4,0.5,6,1.2c1.9,0.8,3.6,1.9,4.9,3.4c1.4,1.4,2.5,3.1,3.4,4.9c0.8,1.9,1.2,3.9,1.2,6
			s-0.5,4.2-1.2,6c-0.8,1.9-1.9,3.6-3.2,4.9c-1.4,1.4-3.1,2.5-4.9,3.4c-1.9,0.8-3.9,1.2-6.2,1.2c-2.6,0-5.1-0.5-7.1-1.5v7.4
			c0,1.1-0.5,2-1.2,2.9c-0.8,0.8-1.9,1.2-2.9,1.2c-1.1,0-2-0.3-2.8-1.1c-0.8-0.8-1.2-1.7-1.2-2.8V94.6c0-2.2,0.5-4,1.2-6
			c0.8-1.9,2-3.6,3.4-4.9c1.4-1.3,3.1-2.5,4.9-3.4C134.4,79.2,136.4,78.7,138.6,78.7z M131.3,94.2c0,1.1,0.2,2,0.6,2.9
			c0.3,0.9,0.9,1.7,1.5,2.3c0.6,0.6,1.4,1.1,2.3,1.5c0.9,0.3,1.9,0.6,2.8,0.6c1.1,0,2-0.2,2.8-0.6c0.9-0.3,1.5-0.9,2.2-1.5
			c0.6-0.6,1.1-1.4,1.5-2.3c0.3-0.9,0.6-1.9,0.6-2.8s-0.2-1.9-0.6-2.8c-0.3-0.9-0.9-1.7-1.5-2.3c-0.6-0.6-1.4-1.1-2.2-1.5
			c-0.9-0.3-1.7-0.6-2.8-0.6s-2,0.2-2.8,0.6c-0.9,0.3-1.7,0.9-2.3,1.5s-1.1,1.4-1.5,2.2C131.4,92.3,131.3,93.2,131.3,94.2z"/>
		<path class="st1" d="M159.9,69c1.1,0,2.2,0.5,2.9,1.2c0.8,0.8,1.2,1.9,1.2,2.9v25.4c0,0.9,0.3,1.5,0.8,2.2
			c0.6,0.6,1.2,0.9,2.2,0.9c1.1,0,2,0.3,2.9,1.1c0.8,0.8,1.2,1.7,1.2,2.9c0,1.1-0.3,1.9-1.1,2.8c-0.8,0.8-1.5,1.2-2.8,1.4h-0.9
			c-1.5,0-2.9-0.3-4.2-0.9c-1.4-0.6-2.5-1.4-3.6-2.5c-0.9-1.1-1.9-2.2-2.3-3.6c-0.6-1.4-0.9-2.8-0.9-4.3V73c0.2-1.1,0.6-2,1.4-2.8
			C157.6,69.4,158.8,69,159.9,69z"/>
		<path class="st1" d="M188.8,78.7c1.9,0.2,3.7,0.8,5.4,1.7c1.7,0.9,3.1,2,4.3,3.4s2.2,2.9,2.9,4.8c0.8,1.7,1.1,3.7,1.1,5.6v11.3
			c0,1.1-0.5,2.2-1.2,2.9c-0.9,0.8-1.9,1.2-2.9,1.2c-1.5,0-2.6-0.6-3.6-2c-0.2,0.2-0.5,0.2-0.6,0.3c-0.2,0.2-0.3,0.2-0.5,0.3
			c-1.1,0.5-2,0.8-3.1,1.1s-2.3,0.3-3.6,0.3c-3.2,0-6-0.9-8.5-2.6s-4.3-4-5.6-6.6c-0.5-0.9-0.8-2-0.9-2.9c-0.3-1.1-0.3-2.2-0.3-3.2
			c0-1.1,0.2-2.2,0.3-3.2c0.3-1.1,0.6-2,0.9-2.9c1.2-2.8,3.1-4.9,5.6-6.6s5.4-2.6,8.5-2.6c0.3,0,0.6,0,0.9,0
			C188.4,78.7,188.5,78.7,188.8,78.7z M187,101.3c0.9,0,1.9-0.2,2.8-0.6c0.9-0.3,1.7-0.9,2.3-1.5s1.1-1.4,1.5-2.3
			c0.3-0.9,0.6-1.9,0.6-2.8s-0.2-1.9-0.6-2.8c-0.3-0.9-0.9-1.7-1.5-2.3s-1.4-1.2-2.3-1.5c-0.9-0.3-1.9-0.6-2.8-0.6
			c-0.9,0-1.9,0.2-2.6,0.6c-0.9,0.3-1.5,0.9-2.3,1.5c-0.6,0.6-1.2,1.4-1.5,2.3s-0.6,1.9-0.6,2.8s0.2,1.9,0.6,2.8
			c0.5,0.9,0.9,1.7,1.5,2.3s1.4,1.1,2.3,1.5C185.3,101.1,186.2,101.3,187,101.3z"/>
		<path class="st1" d="M220.4,78.7c4.3,0,7.9,1.5,10.8,4.5c0.8,0.8,1.1,1.7,0.9,2.9c0,1.1-0.5,2-1.2,2.8c-0.8,0.8-1.7,1.1-2.9,1.1
			s-2.2-0.3-2.9-1.1c-1.4-1.2-2.9-1.9-4.8-1.9c-0.9,0-1.9,0.2-2.8,0.6c-0.9,0.5-1.7,0.9-2.3,1.5s-1.2,1.4-1.5,2.3s-0.6,1.7-0.6,2.6
			s0.2,1.9,0.6,2.8c0.3,0.9,0.9,1.7,1.5,2.3s1.4,1.2,2.3,1.5c0.9,0.3,1.7,0.6,2.8,0.5c1.9,0,3.4-0.6,4.8-1.7
			c0.8-0.9,1.7-1.2,2.9-1.2s2.2,0.5,2.9,1.2c0.3,0.3,0.6,0.8,0.9,1.2c0.2,0.5,0.3,0.9,0.3,1.5c0,0.5,0,1.1-0.2,1.5
			c-0.2,0.5-0.5,0.9-0.8,1.2c-1.5,1.5-3.1,2.6-4.9,3.4c-1.9,0.8-3.7,1.1-6,1.1c-2.2,0-4.2-0.5-6-1.2s-3.6-2-4.9-3.4
			c-1.4-1.4-2.5-3.1-3.4-4.9c-0.8-1.9-1.2-3.9-1.2-5.9s0.5-4,1.2-5.9c0.8-1.9,2-3.6,3.4-4.9c1.4-1.4,3.1-2.5,4.9-3.4
			C216.3,79,218.4,78.7,220.4,78.7z"/>
		<path class="st1" d="M250.1,78.7c2,0,4,0.5,5.9,1.2c1.9,0.9,3.6,2,4.9,3.4c1.4,1.4,2.6,3.1,3.4,4.9c0.9,1.9,1.2,3.9,1.2,5.9
			c0,1.1-0.5,2.2-1.2,2.9c-0.8,0.9-1.9,1.2-3.1,1.2h-17c1.4,2,3.4,2.9,5.9,2.9c0.6,0,1.2,0,1.7-0.2s0.9-0.3,1.2-0.5s0.8-0.3,1.1-0.5
			s0.8-0.2,1.2-0.2c0.9,0,1.7,0.3,2.3,0.8s1.1,1.1,1.5,1.7c0.3,0.8,0.5,1.4,0.3,2.3c-0.2,0.8-0.5,1.5-1.1,2.2
			c-1.1,0.9-2.5,1.5-3.9,2c-1.4,0.3-2.9,0.6-4.5,0.6c-2,0.2-4-0.3-5.9-1.1c-1.9-0.8-3.6-2-4.9-3.4c-1.4-1.4-2.6-3.1-3.4-4.9
			c-0.8-1.9-1.2-3.9-1.2-5.9s0.5-4,1.2-5.9c0.8-1.9,2-3.6,3.4-4.9s3.1-2.6,4.9-3.4C245.9,79,247.9,78.7,250.1,78.7z M255.8,89.8
			c-0.8-0.9-1.5-1.5-2.6-2.2c-0.9-0.5-2-0.8-3.2-0.8s-2.3,0.3-3.2,0.8s-1.9,1.2-2.5,2.2H255.8z"/>
	</g>
</g>
</svg>
